<?xml version="1.0" encoding="UTF-8"?>
<svg width="100px" height="21px" viewBox="0 0 100 21" version="1.1" xmlns="http://www.w3.org/2000/svg" xmlns:xlink="http://www.w3.org/1999/xlink">
    <g id="Project-Set-up" stroke="none" stroke-width="1" fill="none" fill-rule="evenodd">
        <g id="01-Project-Set-Up-" transform="translate(-670.000000, -883.000000)" fill="#FFFFFF">
            <g id="Logo-Allex" transform="translate(670.000000, 883.000000)">
                <path d="M9.56226008,0.00181999477 L9.66786669,0.00868194008 L9.686,0.0109994981 L9.72851374,0.0141732154 C9.89484435,0.0350411234 10.0608036,0.0816722773 10.2209717,0.156039329 C10.6305877,0.346226615 10.925228,0.683299907 11.0713311,1.07551955 L15.8047903,11.182271 C15.8489388,11.2594221 15.8870543,11.3404689 15.9184938,11.4247684 L18.8798876,17.7490348 C18.8806553,17.7506741 18.8814203,17.7523146 18.8821826,17.7539563 C19.2655058,18.5795389 18.9069838,19.5595506 18.0814012,19.9428738 C17.2983573,20.3064461 16.3768966,20.0070961 15.9503319,19.2753293 L15.880322,19.1417522 L13.312,13.6569995 L5.723,13.6569995 L3.15552799,19.1417522 C2.76783948,19.9695846 1.78355409,20.3278327 0.95444876,19.9428738 C0.128866207,19.5595506 -0.229655827,18.5795389 0.153667385,17.7539563 L0.155962323,17.7490348 L7.97181109,1.056308 C8.12029649,0.672306701 8.41196575,0.343114162 8.81487826,0.156039329 C8.96003243,0.0886433297 9.10994297,0.0440271003 9.26057576,0.0207223534 C9.26509541,0.0216381226 9.26977502,0.020906275 9.27445846,0.0201943362 C9.3062427,0.0139972142 9.33793723,0.0103156804 9.36962068,0.00755992662 C9.39296587,0.00634478819 9.41667074,0.00463967432 9.44043299,0.00344555094 L9.47258851,0.00184389876 L9.56226008,0.00181999477 Z M47.188229,0.143378061 C48.1021648,0.143378061 48.8430562,0.884269463 48.8430562,1.79820532 L48.8424017,16.6913781 L57.1171925,16.6916507 C58.0311284,16.6916507 58.7720198,17.4325421 58.7720198,18.346478 C58.7720198,19.2604138 58.0311284,20.0013052 57.1171925,20.0013052 L47.188229,20.0013052 C46.2742931,20.0013052 45.5334017,19.2604138 45.5334017,18.346478 L45.5334017,1.79820532 C45.5334017,0.884269463 46.2742931,0.143378061 47.188229,0.143378061 Z M27.3303018,0.143378061 C28.2442376,0.143378061 28.985129,0.884269463 28.985129,1.79820532 L28.9844745,16.6916507 L37.2592654,16.6916507 C38.1732012,16.6916507 38.9140926,17.4325421 38.9140926,18.346478 C38.9140926,19.2604138 38.1732012,20.0013052 37.2592654,20.0013052 L27.3303018,20.0013052 C26.4163659,20.0013052 25.6754745,19.2604138 25.6754745,18.346478 L25.6754745,1.79820532 C25.6754745,0.884269463 26.4163659,0.143378061 27.3303018,0.143378061 Z M76.9751197,0.143378061 C77.8890556,0.143378061 78.629947,0.884269463 78.629947,1.79820532 C78.629947,2.71214119 77.8890556,3.45303259 76.9751197,3.45303259 L68.7003289,3.45237806 L68.7003289,8.41737806 L76.9751197,8.41751438 C77.8890556,8.41751438 78.629947,9.15840578 78.629947,10.0723416 C78.629947,10.9862775 77.8890556,11.7271689 76.9751197,11.7271689 L68.7003289,11.7263781 L68.7003289,16.6913781 L76.9751197,16.6916507 C77.8890556,16.6916507 78.629947,17.4325421 78.629947,18.346478 C78.629947,19.2604138 77.8890556,20.0013052 76.9751197,20.0013052 L67.0461561,20.0013052 C66.1322203,20.0013052 65.3913289,19.2604138 65.3913289,18.346478 L65.3913289,1.79820532 C65.3913289,0.884269463 66.1322203,0.143378061 67.0461561,0.143378061 L76.9751197,0.143378061 Z M99.2942008,0.583455691 C100.042853,1.10766777 100.224798,2.13952832 99.700586,2.88818075 L94.6700226,10.0720417 L99.700586,17.2565025 C100.193962,17.9611166 100.061815,18.9166001 99.4204047,19.4636109 L99.2942008,19.5612276 C98.5895867,20.0546037 97.6341032,19.9224566 97.0870925,19.2810464 L96.9894757,19.1548424 L92.6500226,12.9570417 L88.3105469,19.1548424 C87.7863348,19.9034948 86.7544743,20.0854397 86.0058218,19.5612276 C85.2571694,19.0370155 85.0752245,18.005155 85.5994366,17.2565025 L90.6290226,10.0720417 L85.5994366,2.88818075 C85.1060605,2.1835667 85.2382076,1.22808317 85.8796179,0.681072439 L86.0058218,0.583455691 C86.7104359,0.0900796207 87.6659194,0.222226645 88.2129301,0.863636929 L88.3105469,0.989840902 L92.6500226,7.18704168 L96.9894757,0.989840902 C97.5136878,0.241188473 98.5455483,0.0592436163 99.2942008,0.583455691 Z M9.518,5.5549995 L7.273,10.3479995 L11.762,10.3479995 L9.518,5.5549995 Z" id="Combined-Shape"></path>
            </g>
        </g>
    </g>
</svg>

